<svg width="36" height="38" viewBox="0 0 36 38" fill="none" xmlns="http://www.w3.org/2000/svg">
<path d="M17.5748 37.9458C16.8701 37.7832 16.2196 37.5663 15.7859 36.97C15.5149 36.5906 15.298 36.1027 15.0812 35.669C14.9728 35.4522 14.9186 35.3438 14.7017 35.2896C13.2923 35.0185 11.8829 34.5307 10.5819 33.8802C8.52199 32.8502 6.73312 31.4408 5.2695 29.6519C5.10687 29.4351 4.94425 29.4351 4.72741 29.4893C3.37221 29.9772 1.90858 29.3809 1.20387 28.1341C0.499167 26.8331 0.770209 25.2611 1.96279 24.3937C2.17962 24.2311 2.23383 24.0685 2.12542 23.7974C1.14967 20.5991 1.14967 17.3466 2.12542 14.1484C2.17962 13.9315 2.17962 13.7689 1.96279 13.6063C0.770209 12.7389 0.444959 11.1669 1.14967 9.86591C1.85437 8.56491 3.318 8.02282 4.72741 8.5107C4.99845 8.61911 5.10687 8.5107 5.2695 8.34807C6.73312 6.5592 8.52199 5.14979 10.5819 4.11983C11.8287 3.46933 13.1839 3.03566 14.5391 2.76462C14.8644 2.71041 15.0812 2.602 15.1896 2.16833C15.4064 0.867332 16.6532 0 18.0084 0C19.3636 0 20.5562 0.975749 20.8273 2.27675C20.8815 2.602 21.0441 2.71041 21.3151 2.76462C23.5377 3.19829 25.5434 4.06562 27.3865 5.36662C28.6333 6.23395 29.7174 7.2097 30.639 8.34807C30.8016 8.56491 30.9642 8.61911 31.2353 8.5107C32.5363 8.02282 34.0541 8.61912 34.7588 9.8117C35.4635 11.1127 35.1925 12.6847 34.0541 13.5521C33.8373 13.7147 33.783 13.8773 33.8373 14.1484C34.813 17.3466 34.813 20.5991 33.8373 23.7974C33.783 24.0143 33.783 24.1769 33.9999 24.3395C35.084 25.1526 35.4635 26.6705 34.9214 27.9173C34.3251 29.2183 32.9157 29.9772 31.6147 29.5977C31.0184 29.4351 30.7474 29.5977 30.3679 30.0314C27.9828 32.7418 24.9471 34.4765 21.4236 35.2354C21.0983 35.2896 20.8815 35.4522 20.8273 35.8317C20.502 36.97 19.7431 37.6205 18.6589 37.9458C18.5505 37.9458 18.4963 38 18.3879 38C18.0626 37.9458 17.8458 37.9458 17.5748 37.9458ZM17.9542 10.679C13.4007 10.679 9.66037 14.4194 9.66037 18.9729C9.66037 23.5264 13.4007 27.2668 17.9542 27.2668C22.5077 27.2668 26.2481 23.5264 26.2481 18.9729C26.2481 14.4194 22.5077 10.679 17.9542 10.679ZM15.1354 3.84879C11.395 4.55349 8.35937 6.39658 5.9742 9.32382C6.6247 10.1369 6.84154 11.0043 6.6247 11.98C6.6247 12.0884 6.73312 12.1969 6.78733 12.2511C7.49203 12.6305 8.19674 13.01 8.90145 13.3894C9.2267 13.5521 9.55195 13.7689 9.8772 13.9315C11.8287 11.0585 14.4849 9.48645 17.9542 9.48645C21.4236 9.48645 24.0256 11.1127 25.9771 13.9315C26.8986 13.4437 27.7659 12.9558 28.6333 12.4679C29.0669 12.2511 29.338 12.0342 29.2296 11.4379C29.0669 10.6248 29.3922 9.92011 29.9343 9.26962C27.5491 6.34237 24.5134 4.49929 20.7731 3.79458C20.3936 4.93295 19.6347 5.58345 18.4963 5.85449C18.4963 6.66762 18.4963 7.48074 18.4963 8.23966C18.1169 8.23966 17.7374 8.23966 17.3037 8.23966C17.3037 7.42653 17.3037 6.61341 17.3037 5.85449C16.2738 5.58345 15.5149 4.93295 15.1354 3.84879ZM5.9742 28.622C8.41358 31.5492 11.395 33.3923 15.1354 34.097C15.5149 33.0128 16.2738 32.3081 17.4121 32.0371C17.4121 31.224 17.4121 30.4108 17.4121 29.6519C17.8458 29.6519 18.1711 29.6519 18.6047 29.6519C18.6047 30.465 18.6047 31.2782 18.6047 32.0371C19.7431 32.3081 20.4478 33.0128 20.8273 34.097C24.5676 33.3381 27.6033 31.5492 29.9885 28.622C29.2838 27.5378 29.2296 27.2126 29.338 25.9658C29.338 25.8573 29.2838 25.7489 29.2296 25.6947C28.1996 25.0984 27.1154 24.5563 26.0313 23.9601C24.0798 26.8331 21.4236 28.4051 17.9542 28.4051C14.4849 28.4051 11.8287 26.7789 9.8772 23.9601C8.79303 24.5563 7.76308 25.0984 6.73312 25.6947C6.67891 25.7489 6.57049 25.8573 6.6247 25.9658C6.84154 26.9957 6.57049 27.8631 5.9742 28.622ZM9.33512 22.9301C8.19674 20.2739 8.19674 17.6177 9.33512 14.9615C8.19674 14.3652 7.11258 13.7147 5.9742 13.1184C5.21529 13.9315 4.34795 14.2568 3.26379 14.1484C2.28804 17.3466 2.28804 20.4907 3.26379 23.689C4.34795 23.5806 5.21529 23.9601 5.9742 24.719C7.11258 24.1769 8.19674 23.5806 9.33512 22.9301ZM29.9343 24.7732C30.639 24.0685 31.4521 23.6348 32.482 23.689C32.5363 23.689 32.6989 23.5264 32.7531 23.4722C33.2952 21.7375 33.512 20.0029 33.4036 18.1598C33.3494 16.8046 33.1325 15.5036 32.6447 14.2026C31.6147 14.311 30.7474 13.9857 30.0427 13.281C29.9885 13.2268 29.8258 13.2268 29.7174 13.281C29.2296 13.5521 28.7417 13.8231 28.308 14.0399C27.7659 14.3652 27.1696 14.6362 26.6276 14.9615C27.7659 17.6177 27.7659 20.2739 26.6276 22.9301C27.7117 23.5806 28.7959 24.1769 29.9343 24.7732ZM17.9542 4.71612C18.93 4.71612 19.7431 3.903 19.7431 2.98146C19.7431 2.00571 18.9842 1.19258 18.0084 1.19258C17.0327 1.19258 16.2196 2.00571 16.2196 2.98146C16.1654 3.903 16.9785 4.71612 17.9542 4.71612ZM5.48633 11.2753C5.48633 10.2996 4.6732 9.48645 3.69746 9.48645C2.72171 9.48645 1.90858 10.2996 1.90858 11.2753C1.90858 12.2511 2.72171 13.01 3.69746 13.01C4.72741 13.01 5.48633 12.1969 5.48633 11.2753ZM33.9457 11.2753C33.9457 10.2996 33.1325 9.48645 32.211 9.48645C31.2353 9.48645 30.4221 10.2454 30.4221 11.2211C30.4221 12.1969 31.2353 13.01 32.211 13.01C33.1325 13.0642 33.9457 12.2511 33.9457 11.2753ZM5.48633 26.6705C5.48633 25.6947 4.6732 24.8816 3.69746 24.8816C2.72171 24.8816 1.90858 25.6947 1.90858 26.6705C1.90858 27.6462 2.72171 28.4593 3.69746 28.4593C4.72741 28.4593 5.48633 27.6462 5.48633 26.6705ZM33.9457 26.6705C33.9457 25.6947 33.1325 24.8816 32.211 24.8816C31.2353 24.8816 30.4221 25.6405 30.4221 26.6163C30.4221 27.592 31.2353 28.4051 32.211 28.4051C33.1325 28.4593 33.9457 27.6462 33.9457 26.6705ZM17.9542 33.2297C16.9785 33.2297 16.1654 34.0428 16.1654 34.9643C16.1654 35.9401 16.9785 36.7532 17.9542 36.7532C18.93 36.7532 19.7431 35.9401 19.7431 34.9643C19.7431 33.9886 18.93 33.2297 17.9542 33.2297Z" fill="white"/>
<path d="M16.0565 18.2674C14.9181 17.2375 14.7555 15.9907 15.0807 14.6355C15.406 13.2261 16.8154 12.3045 18.1706 12.4129C19.7426 12.5756 20.7726 13.7681 20.881 15.3402C20.9352 16.4243 20.7184 17.4001 19.7969 18.2132C19.9595 18.3216 20.1221 18.4843 20.2847 18.5927C21.1521 19.1348 22.0736 19.6768 22.9409 20.1647C23.1578 20.2731 23.2662 20.4358 23.212 20.7068C23.212 21.2489 23.212 21.791 23.212 22.2788C23.2662 22.9835 22.8867 23.4714 22.2904 23.6883C21.6941 23.9051 21.0436 24.0677 20.4474 24.1219C18.4959 24.2845 16.4901 24.3388 14.5387 24.0135C14.2134 23.9593 13.8882 23.8509 13.5629 23.7425C12.9124 23.4714 12.5329 22.9835 12.5872 22.2788C12.5872 21.7368 12.5872 21.1947 12.5872 20.6526C12.5872 20.4358 12.6414 20.3273 12.804 20.2189C13.7255 19.6768 14.5929 19.1348 15.5144 18.5927C15.7312 18.5385 15.8939 18.4301 16.0565 18.2674ZM17.6285 23.1462C18.7127 23.092 19.4716 23.092 20.2305 23.0378C20.7184 22.9836 21.2605 22.8751 21.7484 22.7667C22.0194 22.7125 22.0736 22.5499 22.0736 22.2788C22.2362 21.4115 21.911 20.8152 21.0436 20.49C20.9352 20.4358 20.8268 20.3816 20.7726 20.3273C20.1221 19.8937 19.4716 19.4058 18.8211 18.9721C18.7669 18.9179 18.6043 18.9179 18.4959 18.9179C18.0622 18.9179 17.6827 18.9179 17.2491 18.9179C17.1406 18.9179 16.978 18.9179 16.9238 18.9721C16.2191 19.7311 15.2976 20.1647 14.4302 20.6526C13.8882 20.9778 13.6171 21.3031 13.7255 21.9536C13.7797 22.7125 13.7797 22.7125 14.4844 22.9293C14.5387 22.9293 14.5387 22.9293 14.5929 22.9293C15.7854 22.9835 16.8696 23.092 17.6285 23.1462ZM16.1649 15.6654C16.1649 15.8281 16.1649 15.9907 16.1649 16.1533C16.2191 17.0748 16.978 17.7253 17.8454 17.7796C18.7127 17.8338 19.5258 17.2375 19.6342 16.3701C19.6884 15.8823 19.6884 15.3944 19.58 14.9607C19.309 13.8766 18.008 13.3345 17.0322 13.8766C16.4359 14.256 16.1649 14.9065 16.1649 15.6654Z" fill="white"/>
<path d="M18.5505 3.52314C18.171 3.52314 17.7916 3.52314 17.4121 3.52314C17.4121 3.14368 17.4121 2.76422 17.4121 2.38477C17.7916 2.38477 18.171 2.38477 18.5505 2.38477C18.5505 2.76422 18.5505 3.14368 18.5505 3.52314Z" fill="white"/>
<path d="M4.29267 11.8161C3.91321 11.8161 3.53375 11.8161 3.1543 11.8161C3.1543 11.4366 3.1543 11.0572 3.1543 10.6777C3.53375 10.6777 3.91321 10.6777 4.29267 10.6777C4.29267 11.0572 4.29267 11.4366 4.29267 11.8161Z" fill="white"/>
<path d="M32.7526 10.6777C32.7526 11.0572 32.7526 11.4366 32.7526 11.8161C32.3732 11.8161 31.9937 11.8161 31.6143 11.8161C31.6143 11.4366 31.6143 11.0572 31.6143 10.6777C31.9937 10.6777 32.3732 10.6777 32.7526 10.6777Z" fill="white"/>
<path d="M4.29267 27.2663C3.91321 27.2663 3.53375 27.2663 3.1543 27.2663C3.1543 26.8868 3.1543 26.5074 3.1543 26.1279C3.53375 26.1279 3.91321 26.1279 4.29267 26.1279C4.29267 26.5074 4.29267 26.8868 4.29267 27.2663Z" fill="white"/>
<path d="M32.7526 26.1279C32.7526 26.5074 32.7526 26.8868 32.7526 27.2663C32.3732 27.2663 31.9937 27.2663 31.6143 27.2663C31.6143 26.8868 31.6143 26.5074 31.6143 26.1279C31.9937 26.1279 32.3732 26.1279 32.7526 26.1279Z" fill="white"/>
<path d="M18.5505 34.4219C18.5505 34.8013 18.5505 35.1808 18.5505 35.5602C18.171 35.5602 17.7916 35.5602 17.4121 35.5602C17.4121 35.1808 17.4121 34.8013 17.4121 34.4219C17.7916 34.4219 18.1168 34.4219 18.5505 34.4219Z" fill="white"/>
</svg>
