<svg width="38" height="38" viewBox="0 0 38 38" fill="none" xmlns="http://www.w3.org/2000/svg">
<g clip-path="url(#clip0_1511_14221)">
<path d="M27.6088 11.5188C26.5401 12.5875 25.4713 13.6562 24.3432 14.7844C25.6495 16.5063 26.1245 18.4656 25.6495 20.6031C25.2338 22.2656 24.2838 23.6313 22.8588 24.5813C20.0682 26.5406 16.3276 26.125 14.012 23.6313C11.637 21.0781 11.5182 17.3375 13.7745 14.6656C15.7932 12.2313 19.712 11.0437 23.2151 13.5969C24.2838 12.5281 25.3526 11.4594 26.4213 10.3313C24.5213 8.72812 22.3245 7.77813 19.712 7.6C19.712 8.3125 19.712 8.96562 19.712 9.67812C19.712 10.2719 19.4151 10.6281 18.9401 10.6281C18.4651 10.6281 18.1682 10.2719 18.1682 9.67812C18.1682 8.13437 18.1682 6.65 18.1682 5.10625C18.1682 4.92813 18.1682 4.75 18.1682 4.57188C16.6838 4.63125 15.2588 4.92812 13.8932 5.4625C9.14321 7.3625 6.11508 10.8063 4.86821 15.7937C4.86821 15.9125 4.80883 15.9719 4.80883 16.0906C4.69008 16.5063 4.33383 16.7437 3.91821 16.6844C3.50258 16.5656 3.26508 16.2094 3.32446 15.7344C3.74008 13.5969 4.57133 11.6375 5.81821 9.91563C8.78696 5.9375 12.6463 3.62188 17.5745 3.14688C17.7526 3.14688 17.9901 3.0875 18.2276 3.0875C18.2276 2.43437 18.2276 1.72187 18.2276 1.06875C18.2276 0.35625 18.4651 0 18.9995 0C19.4745 0 19.7713 0.35625 19.7713 1.00937C19.7713 2.55312 19.7713 4.0375 19.7713 5.58125C19.7713 5.75937 19.7713 5.9375 19.7713 6.11562C22.7401 6.35313 25.3526 7.42188 27.5495 9.32187C27.9057 8.96562 28.2026 8.60938 28.6182 8.19375C27.8463 7.65938 27.1338 7.06563 26.3026 6.59063C24.9963 5.81875 23.6307 5.225 22.1463 4.92812C22.0276 4.92812 21.9088 4.86875 21.8495 4.86875C21.4338 4.75 21.1963 4.33437 21.3151 3.91875C21.4338 3.50312 21.7901 3.26562 22.2651 3.38437C24.1651 3.74062 25.887 4.45312 27.4901 5.52187C28.262 6.05625 28.9745 6.59062 29.8651 7.24375C29.9245 7.00625 30.1026 6.82812 30.1026 6.65C30.1026 5.81875 30.1026 5.04688 30.1026 4.21562C30.1026 3.91875 30.2213 3.5625 30.4588 3.38437C31.4088 2.375 32.4182 1.36563 33.4276 0.35625C33.7245 0.059375 34.0213 -0.059375 34.3776 0.11875C34.7338 0.2375 34.8526 0.59375 34.8526 0.95C34.8526 1.72187 34.8526 2.43438 34.8526 3.26562C35.6245 3.26562 36.3963 3.26562 37.1682 3.26562C37.5838 3.26562 37.8807 3.38438 38.0588 3.74063C38.1776 4.15625 38.0588 4.45312 37.762 4.69063C36.7526 5.64062 35.8026 6.65 34.8526 7.6C34.6151 7.8375 34.2588 7.95625 33.962 7.95625C33.1901 8.01562 32.3588 7.95625 31.587 7.95625C31.4088 7.95625 31.1713 8.13438 30.9338 8.19375C32.2401 9.67813 33.1901 11.1625 33.9026 12.8844C34.6151 14.6063 34.9713 16.3281 35.0901 18.2281C35.8026 18.2281 36.5151 18.2281 37.1682 18.2281C37.762 18.2281 38.1182 18.525 38.1182 19C38.1182 19.475 37.762 19.7719 37.1682 19.7719C35.6245 19.7719 34.0807 19.7719 32.537 19.7719C32.3588 19.7719 32.1807 19.7719 32.1213 19.7719C31.7651 21.0781 31.587 22.3844 31.112 23.5719C29.5682 27.55 26.7182 30.1625 22.6213 31.4094C22.5026 31.4094 22.4432 31.4688 22.3245 31.4688C21.8495 31.5875 21.4932 31.35 21.3745 30.9344C21.2557 30.5187 21.4932 30.1625 21.9682 29.9844C22.2651 29.8656 22.562 29.8062 22.7995 29.6875C27.312 27.9656 29.8651 24.6406 30.3995 19.8906C30.3995 19.8312 30.3995 19.8313 30.3995 19.7125C29.7463 19.7125 29.0338 19.7125 28.3807 19.7125C27.787 19.7125 27.4307 19.4156 27.4307 18.9406C27.4307 18.4656 27.787 18.1688 28.3807 18.1688C29.9245 18.1688 31.4088 18.1688 32.9526 18.1688C33.1307 18.1688 33.3088 18.1688 33.487 18.1688C33.2495 14.7844 32.062 11.8156 29.8651 9.32187C29.5088 9.67812 29.1526 10.0344 28.7963 10.3906C28.8557 10.45 28.9151 10.5688 29.0338 10.6875C30.162 12.0531 30.9932 13.5969 31.4682 15.3187C31.7057 16.0312 31.5276 16.4469 31.0526 16.625C30.5776 16.7437 30.2213 16.4469 30.0432 15.7937C29.4495 14.25 28.6776 12.825 27.6088 11.5188ZM22.087 14.7844C20.3057 13.3 17.2182 13.1812 15.1401 15.3187C13.1213 17.4562 13.1213 20.6031 15.1995 22.6812C17.2776 24.7594 20.4838 24.8188 22.562 22.8C24.6995 20.7812 24.6995 17.6938 23.1557 15.7937C22.8588 16.0906 22.6213 16.3281 22.3245 16.625C22.087 16.8031 22.1463 16.9813 22.2651 17.2188C22.6807 18.05 22.8588 18.8813 22.6213 19.7719C22.1463 21.85 20.0088 23.1562 17.9901 22.6219C15.912 22.0875 14.6651 19.8906 15.2588 17.8719C15.912 15.7937 18.1088 14.5469 20.0682 15.3781C20.8995 15.7344 21.3745 15.4969 21.7901 14.9031C21.9682 14.9031 22.0276 14.8438 22.087 14.7844ZM21.0182 17.9906C20.4838 18.525 20.0088 19.0594 19.5338 19.5344C19.237 19.8313 18.8213 19.8313 18.5245 19.5344C18.2276 19.2375 18.1682 18.8813 18.4057 18.525C18.5245 18.4062 18.6432 18.2875 18.762 18.1688C19.1776 17.7531 19.5932 17.3375 20.0088 16.9219C18.8807 16.4469 17.7526 16.8031 17.1588 17.6938C16.5651 18.5844 16.6838 19.7719 17.4557 20.5437C18.2276 21.3156 19.3557 21.4344 20.3057 20.8406C21.137 20.2469 21.4932 19.1187 21.0182 17.9906ZM31.587 6.4125C32.2401 6.4125 32.8338 6.4125 33.4276 6.4125C33.5463 6.4125 33.7245 6.4125 33.7838 6.35313C34.2588 5.87812 34.7932 5.34375 35.387 4.75C34.8526 4.75 34.437 4.75 34.0807 4.75C33.5463 4.75 33.2495 4.45312 33.2495 3.91875C33.2495 3.50312 33.2495 3.0875 33.2495 2.55313C32.6557 3.14688 32.1807 3.62188 31.7057 4.09688C31.6463 4.15625 31.587 4.275 31.587 4.39375C31.5276 5.10625 31.587 5.7 31.587 6.4125Z" fill="white"/>
<path d="M2.96855 19.7717C2.31543 19.7717 1.60293 19.7717 0.89043 19.7717C0.29668 19.7717 -0.0595703 19.4749 -0.0595703 18.9999C-0.0595703 18.5249 0.29668 18.2874 0.831055 18.228C2.55293 18.228 4.21543 18.228 5.93731 18.228C6.17481 17.2186 6.29356 16.2686 6.59043 15.3186C6.82793 14.5467 7.18418 13.7749 7.48106 13.0624C7.71856 12.5874 8.13418 12.4092 8.54981 12.6467C8.96543 12.8842 9.08418 13.2999 8.78731 13.7749C8.07481 15.1999 7.59981 16.6842 7.54043 18.2874C8.19356 18.2874 8.78731 18.2874 9.44043 18.2874C10.1529 18.2874 10.5092 18.5249 10.5686 19.0592C10.5686 19.5936 10.2123 19.8311 9.44043 19.8311C7.95606 19.8311 6.53106 19.8311 5.04668 19.8311C4.86856 19.8311 4.69043 19.8311 4.51231 19.8311C4.57168 21.078 4.74981 22.2655 5.16543 23.3936C6.94668 28.5592 10.4498 31.8249 15.7342 33.1311C15.9123 33.1905 16.1498 33.2499 16.3279 33.3686C16.6248 33.6061 16.7436 33.903 16.5654 34.2592C16.3873 34.6155 16.0904 34.7936 15.6748 34.7342C13.8342 34.3186 12.0529 33.6655 10.4498 32.6561C6.17481 29.6874 3.68105 25.6499 3.0873 20.4249C3.0873 20.2467 3.02793 20.0686 3.02793 19.8905C3.02793 19.8905 3.02793 19.8311 2.96855 19.7717Z" fill="white"/>
<path d="M19.7717 34.9721C19.7717 35.6846 19.7717 36.3378 19.7717 37.0503C19.7717 37.644 19.4748 38.0003 18.9998 38.0003C18.5248 38.0003 18.2279 37.644 18.2279 37.0503C18.2279 35.5065 18.2279 33.9628 18.2279 32.419C18.2279 32.2409 18.2279 32.0628 18.2279 31.944C17.4561 31.8253 16.7436 31.7065 16.0311 31.5284C11.2217 30.2815 8.07481 27.3128 6.59043 22.5628C6.53106 22.3846 6.47168 22.2659 6.47168 22.0878C6.47168 21.6721 6.64981 21.4346 7.00606 21.3159C7.36231 21.1971 7.71856 21.3159 7.89668 21.6721C7.95606 21.8503 8.01543 22.0284 8.07481 22.2065C9.38106 26.719 13.5967 30.1628 18.2279 30.3409C18.2279 29.6878 18.2279 28.9753 18.2279 28.3221C18.2279 27.7284 18.5248 27.3721 18.9404 27.3721C19.4154 27.3721 19.7123 27.7284 19.7123 28.3221C19.7123 29.8065 19.7123 31.3503 19.7123 32.8346C19.7123 33.0128 19.7123 33.1909 19.7123 33.4878C20.6623 33.3096 21.6123 33.1909 22.5029 33.0128C24.1061 32.6565 25.5311 32.0034 26.8967 31.1128C27.0154 31.0534 27.1342 30.9346 27.2529 30.8753C27.6092 30.7565 27.9061 30.8159 28.1436 31.1128C28.3811 31.4096 28.3217 31.7659 28.0842 32.0034C27.9654 32.1221 27.7873 32.2409 27.6092 32.3596C25.2936 33.844 22.7404 34.6753 20.0092 34.9128C20.0092 34.9128 19.8904 34.9721 19.7717 34.9721Z" fill="white"/>
<path d="M31.9437 27.9654C31.1719 27.9654 30.875 27.3717 31.1719 26.7185C31.7062 25.6498 32.2406 24.5217 32.7156 23.3935C32.8937 22.9185 33.0125 22.3842 33.1312 21.9092C33.25 21.4342 33.6062 21.1967 34.0219 21.256C34.4375 21.3748 34.675 21.731 34.6156 22.2654C34.2594 24.1654 33.5469 25.8873 32.4781 27.4904C32.3 27.7279 32.0625 27.906 31.9437 27.9654Z" fill="white"/>
<path d="M12.1717 9.67786C11.9936 9.49973 11.6967 9.32161 11.578 9.02473C11.3998 8.66848 11.6373 8.37161 11.9342 8.13411C13.0623 7.42161 14.3092 6.82786 15.6155 6.53098C16.0311 6.41223 16.328 6.53098 16.5061 6.88723C16.7436 7.30286 16.5655 7.83723 16.0905 8.01536C14.8436 8.37161 13.7155 8.84661 12.6467 9.55911C12.5873 9.55911 12.4686 9.5591 12.1717 9.67786Z" fill="white"/>
<path d="M10.8066 10.8061C10.8066 11.2217 10.4504 11.5186 10.0348 11.5186C9.61914 11.5186 9.32227 11.1623 9.32227 10.7467C9.32227 10.3311 9.67852 10.0342 10.0941 10.0342C10.4504 10.0342 10.8066 10.3904 10.8066 10.8061Z" fill="white"/>
<path d="M30.6375 29.5689C30.6375 29.9846 30.2812 30.3408 29.8656 30.3408C29.45 30.3408 29.0938 30.0439 29.0938 29.6283C29.0938 29.2127 29.3906 28.8564 29.8062 28.8564C30.2812 28.8564 30.6375 29.1533 30.6375 29.5689Z" fill="white"/>
</g>
<defs>
<clipPath id="clip0_1511_14221">
<rect width="38" height="38" fill="white"/>
</clipPath>
</defs>
</svg>
